<svg width="600" height="200" viewBox="0 0 600 200" fill="none" xmlns="http://www.w3.org/2000/svg">
    <rect x="0" y="0" width="600" height="200" fill="#2ecc71"/>
    <!-- Dark green diagonal lines -->
    <rect x="10" y="-30" width="20" height="100" rx="10" transform="rotate(30 10 -30)" fill="#2a9d8f"/>
    <rect x="70" y="-50" width="20" height="120" rx="10" transform="rotate(30 70 -50)" fill="#2a9d8f"/>
    <rect x="130" y="-20" width="20" height="90" rx="10" transform="rotate(30 130 -20)" fill="#2a9d8f"/>
    <rect x="190" y="-60" width="20" height="110" rx="10" transform="rotate(30 190 -60)" fill="#2a9d8f"/>
    
    <!-- Lighter green diagonal lines -->
    <rect x="40" y="-10" width="20" height="110" rx="10" transform="rotate(30 40 -10)" fill="#218a7c"/>
    <rect x="100" y="-70" width="20" height="130" rx="10" transform="rotate(30 100 -70)" fill="#218a7c"/>
    <rect x="160" y="-40" width="20" height="100" rx="10" transform="rotate(30 160 -40)" fill="#218a7c"/>
    <rect x="220" y="-80" width="20" height="120" rx="10" transform="rotate(30 220 -80)" fill="#218a7c"/>

    <!-- Small dark green circles -->
    <circle cx="20" cy="150" r="10" fill="#2a9d8f"/>
    <circle cx="90" cy="180" r="10" fill="#2a9d8f"/>
    
    <!-- Small lighter green circles -->
    <circle cx="50" cy="170" r="10" fill="#218a7c"/>
    <circle cx="120" cy="190" r="10" fill="#218a7c"/>

    <!-- Additional diagonal lines to extend the pattern -->
    <rect x="250" y="-30" width="20" height="100" rx="10" transform="rotate(30 250 -30)" fill="#2a9d8f"/>
    <rect x="310" y="-50" width="20" height="120" rx="10" transform="rotate(30 310 -50)" fill="#2a9d8f"/>
    <rect x="370" y="-20" width="20" height="90" rx="10" transform="rotate(30 370 -20)" fill="#2a9d8f"/>
    <rect x="430" y="-60" width="20" height="110" rx="10" transform="rotate(30 430 -60)" fill="#2a9d8f"/>

    <rect x="280" y="-10" width="20" height="110" rx="10" transform="rotate(30 280 -10)" fill="#218a7c"/>
    <rect x="340" y="-70" width="20" height="130" rx="10" transform="rotate(30 340 -70)" fill="#218a7c"/>
    <rect x="400" y="-40" width="20" height="100" rx="10" transform="rotate(30 400 -40)" fill="#218a7c"/>
    <rect x="460" y="-80" width="20" height="120" rx="10" transform="rotate(30 460 -80)" fill="#218a7c"/>

    <!-- Additional small circles -->
    <circle cx="280" cy="150" r="10" fill="#2a9d8f"/>
    <circle cx="350" cy="180" r="10" fill="#2a9d8f"/>
    
    <circle cx="310" cy="170" r="10" fill="#218a7c"/>
    <circle cx="380" cy="190" r="10" fill="#218a7c"/>
</svg>

